<svg xmlns="http://www.w3.org/2000/svg" viewBox="0 0 24 24" fill="#0a0a0f">
  <!-- Dark background box with slightly rounded corners -->
  <rect width="24" height="24" rx="4" fill="#0a0a0f" />
  
  <!-- Neon Green Cat (Same as Loader) -->
  <g stroke="#00FF99" stroke-width="1.5" stroke-linecap="round" stroke-linejoin="round">
    <path d="M12 5c.67 0 1.35.09 2 .26 1.78-2 5.03-2.84 6.42-2.26 1.4.58-.42 7-.42 7 .57 1.07 1 2.24 1 3.44C21 17.9 16.97 21 12 21s-9-3.1-9-7.56c0-1.25.5-2.4 1.1-3.48 0 0-1.9-6.42-.5-7 1.4-.58 4.5.15 6.2 2.13.7-.15 1.4-.29 2.2-.29z"/>
    <circle cx="9" cy="13" r="1.5" fill="#00FF99" stroke="none" />
    <circle cx="15" cy="13" r="1.5" fill="#00FF99" stroke="none" />
    <path d="M12 16c-.5 0-1.5-.5-1.5-1.5" />
  </g>
</svg>
